<svg height="512pt" viewBox="-16 0 512 512" width="512pt" xmlns="http://www.w3.org/2000/svg"><path d="m30 437h210v60h-210zm0 0" fill="#575f64"/><path d="m135 437h105v60h-105zm0 0" fill="#32393f"/><path d="m180 15v60c0 8.398438-6.597656 15-15 15h-60c-8.402344 0-15-6.601562-15-15v-60c0-8.402344 6.597656-15 15-15h60c8.402344 0 15 6.597656 15 15zm0 0" fill="#575f64"/><path d="m165 90h-30v-90h30c8.402344 0 15 6.597656 15 15v60c0 8.398438-6.597656 15-15 15zm0 0" fill="#32393f"/><path d="m210 75v60c0 8.398438-6.597656 15-15 15h-120c-8.402344 0-15-6.601562-15-15v-60c0-8.402344 6.597656-15 15-15h120c8.402344 0 15 6.597656 15 15zm0 0" fill="#7c8388"/><path d="m195 150h-60v-90h60c8.402344 0 15 6.597656 15 15v60c0 8.398438-6.597656 15-15 15zm0 0" fill="#575f64"/><path d="m270 165v15l-30 30h-210l-30-30v-15c0-24.902344 20.097656-45 45-45h180c24.902344 0 45 20.097656 45 45zm0 0" fill="#c5d3dd"/><path d="m270 165v15l-30 30h-105v-90h90c24.902344 0 45 20.097656 45 45zm0 0" fill="#9facba"/><path d="m270 392v15c0 24.898438-20.097656 45-45 45h-180c-24.902344 0-45-20.101562-45-45v-15l30-30h210zm0 0" fill="#c5d3dd"/><path d="m240 362 30 30v15c0 24.898438-20.097656 45-45 45h-90v-90zm0 0" fill="#9facba"/><path d="m472.074219 151.773438c-4.878907-2.609376-10.808594-2.316407-15.394531.746093l-40.078126 26.71875c-30.191406 20.125-65.332031 30.761719-101.601562 30.761719v152c36.269531 0 71.410156 10.636719 101.601562 30.761719l40.078126 26.71875c4.652343 3.101562 10.585937 3.328125 15.394531.746093 4.878906-2.605468 7.925781-7.691406 7.925781-13.226562v-242c0-5.535156-3.046875-10.621094-7.925781-13.226562zm0 0" fill="#6aa9ff"/><path d="m315 392h-60c-8.289062 0-15-6.710938-15-15v-182c0-8.289062 6.710938-15 15-15h60c8.289062 0 15 6.710938 15 15v182c0 8.289062-6.710938 15-15 15zm0 0" fill="#575f64"/><path d="m270 497c0 8.398438-6.597656 15-15 15h-240c-8.402344 0-15-6.601562-15-15 0-8.402344 6.597656-15 15-15h240c8.402344 0 15 6.597656 15 15zm0 0" fill="#7c8388"/><path d="m270 497c0 8.398438-6.597656 15-15 15h-120v-30h120c8.402344 0 15 6.597656 15 15zm0 0" fill="#575f64"/><path d="m0 180h270v212h-270zm0 0" fill="#e0f4ff"/><path d="m135 180h135v212h-135zm0 0" fill="#c5d3dd"/></svg>