<svg height="512pt" viewBox="-15 0 512 512" width="512pt" xmlns="http://www.w3.org/2000/svg"><path d="m210 75c0-8.289062-6.710938-15-15-15h-15v-45c0-8.289062-6.710938-15-15-15h-60c-8.289062 0-15 6.710938-15 15v45h-15c-8.289062 0-15 6.710938-15 15v15h150zm0 0"/><path d="m15 482c-8.289062 0-15 6.710938-15 15s6.710938 15 15 15h240c8.289062 0 15-6.710938 15-15s-6.710938-15-15-15h-15v-32.761719c17.421875-6.214843 30-23.707031 30-43.238281v-15h-270v15c0 19.53125 12.578125 37.023438 30 43.238281v32.761719zm0 0"/><path d="m473.074219 151.773438c-4.878907-2.609376-10.808594-2.316407-15.394531.746093l-40.078126 26.71875c-17.429687 11.617188-37.609374 19.667969-57.601562 24.738281v163.046876c19.988281 5.070312 40.171875 13.121093 57.601562 24.738281l40.078126 26.71875c4.648437 3.097656 10.585937 3.328125 15.394531.746093 4.878906-2.605468 7.925781-7.691406 7.925781-13.226562v-241c0-5.535156-3.046875-10.621094-7.925781-13.226562zm0 0"/><path d="m315 180h-15v211h15c8.289062 0 15-6.710938 15-15v-181c0-8.289062-6.710938-15-15-15zm0 0"/><path d="m0 180h270v-15c0-24.8125-20.1875-45-45-45h-180c-24.8125 0-45 20.1875-45 45zm0 0"/><path d="m0 210h270v151h-270zm0 0"/></svg>